{
    "asset" : {
        "generator" : "Khronos glTF Blender I/O v1.6.16",
        "version" : "2.0"
    },
    "scene" : 0,
    "scenes" : [
        {
            "name" : "Scene",
            "nodes" : [
                0,
                1,
                8
            ]
        }
    ],
    "nodes" : [
        {
            "name" : "Light",
            "rotation" : [
                0.16907575726509094,
                0.7558803558349609,
                -0.27217137813568115,
                0.570947527885437
            ],
            "translation" : [
                4.076245307922363,
                5.903861999511719,
                -1.0054539442062378
            ]
        },
        {
            "name" : "Camera",
            "rotation" : [
                0.483536034822464,
                0.33687159419059753,
                -0.20870360732078552,
                0.7804827094078064
            ],
            "translation" : [
                7.358891487121582,
                4.958309173583984,
                6.925790786743164
            ]
        },
        {
            "mesh" : 0,
            "name" : "bolt",
            "translation" : [
                0,
                106.15353393554688,
                0
            ]
        },
        {
            "mesh" : 1,
            "name" : "Mesh_0005",
            "translation" : [
                0,
                106.09127807617188,
                0.11599340289831161
            ]
        },
        {
            "mesh" : 2,
            "name" : "Mesh_0007",
            "translation" : [
                0,
                3.814697265625e-06,
                0
            ]
        },
        {
            "mesh" : 3,
            "name" : "Mesh_0008"
        },
        {
            "children" : [
                4,
                5
            ],
            "mesh" : 4,
            "name" : "Mesh_0006",
            "translation" : [
                0.19227874279022217,
                18.69109344482422,
                35.4067268371582
            ]
        },
        {
            "mesh" : 5,
            "name" : "Trigger",
            "translation" : [
                0,
                106.15354919433594,
                0
            ]
        },
        {
            "children" : [
                2,
                3,
                6,
                7
            ],
            "mesh" : 6,
            "name" : "Mesh_0004",
            "rotation" : [
                -0.7071068286895752,
                0,
                0,
                0.7071067094802856
            ],
            "scale" : [
                0.02539999969303608,
                0.02539999969303608,
                0.02539999969303608
            ],
            "translation" : [
                0.01708422787487507,
                0,
                -0.7517525553703308
            ]
        }
    ],
    "materials" : [
        {
            "doubleSided" : true,
            "name" : "Tex_0004_1.dds",
            "pbrMetallicRoughness" : {
                "roughnessFactor" : 0.4343145787715912
            }
        },
        {
            "doubleSided" : true,
            "name" : "Tex_0007_1.dds",
            "pbrMetallicRoughness" : {
                "roughnessFactor" : 0.4343145787715912
            }
        },
        {
            "alphaMode" : "BLEND",
            "doubleSided" : true,
            "name" : "Material #28",
            "pbrMetallicRoughness" : {
                "baseColorTexture" : {
                    "index" : 0
                },
                "roughnessFactor" : 0.858578622341156
            }
        },
        {
            "doubleSided" : true,
            "name" : "Material #26",
            "pbrMetallicRoughness" : {
                "baseColorTexture" : {
                    "index" : 1
                },
                "roughnessFactor" : 0.858578622341156
            }
        },
        {
            "doubleSided" : true,
            "name" : "Material #29",
            "pbrMetallicRoughness" : {
                "baseColorTexture" : {
                    "index" : 2
                },
                "roughnessFactor" : 0.858578622341156
            }
        },
        {
            "doubleSided" : true,
            "name" : "Material #31",
            "pbrMetallicRoughness" : {
                "baseColorTexture" : {
                    "index" : 3
                },
                "roughnessFactor" : 0.858578622341156
            }
        }
    ],
    "meshes" : [
        {
            "name" : "Mesh.006",
            "primitives" : [
                {
                    "attributes" : {
                        "POSITION" : 0,
                        "NORMAL" : 1,
                        "TEXCOORD_0" : 2
                    },
                    "indices" : 3,
                    "material" : 0
                }
            ]
        },
        {
            "name" : "Mesh.005",
            "primitives" : [
                {
                    "attributes" : {
                        "POSITION" : 4,
                        "NORMAL" : 5,
                        "TEXCOORD_0" : 6
                    },
                    "indices" : 7,
                    "material" : 0
                }
            ]
        },
        {
            "name" : "Mesh.003",
            "primitives" : [
                {
                    "attributes" : {
                        "POSITION" : 8,
                        "NORMAL" : 9,
                        "TEXCOORD_0" : 10
                    },
                    "indices" : 11,
                    "material" : 1
                }
            ]
        },
        {
            "name" : "Mesh.002",
            "primitives" : [
                {
                    "attributes" : {
                        "POSITION" : 12,
                        "NORMAL" : 13,
                        "TEXCOORD_0" : 14
                    },
                    "indices" : 15,
                    "material" : 2
                }
            ]
        },
        {
            "name" : "Mesh.001",
            "primitives" : [
                {
                    "attributes" : {
                        "POSITION" : 16,
                        "NORMAL" : 17,
                        "TEXCOORD_0" : 18
                    },
                    "indices" : 19,
                    "material" : 3
                }
            ]
        },
        {
            "name" : "Mesh.004",
            "primitives" : [
                {
                    "attributes" : {
                        "POSITION" : 20,
                        "NORMAL" : 21,
                        "TEXCOORD_0" : 22
                    },
                    "indices" : 23,
                    "material" : 4
                }
            ]
        },
        {
            "name" : "Mesh",
            "primitives" : [
                {
                    "attributes" : {
                        "POSITION" : 24,
                        "NORMAL" : 25,
                        "TEXCOORD_0" : 26
                    },
                    "indices" : 27,
                    "material" : 5
                }
            ]
        }
    ],
    "textures" : [
        {
            "sampler" : 0,
            "source" : 0
        },
        {
            "sampler" : 0,
            "source" : 1
        },
        {
            "sampler" : 0,
            "source" : 1
        },
        {
            "sampler" : 0,
            "source" : 1
        }
    ],
    "images" : [
        {
            "bufferView" : 16,
            "mimeType" : "image/png",
            "name" : "Map #7-Map #7"
        },
        {
            "bufferView" : 21,
            "mimeType" : "image/png",
            "name" : "Tex_0004_1"
        }
    ],
    "accessors" : [
        {
            "bufferView" : 0,
            "componentType" : 5126,
            "count" : 637,
            "max" : [
                5.851902008056641,
                -118.10369110107422,
                23.630456924438477
            ],
            "min" : [
                -0.10994366556406021,
                -136.8312225341797,
                20.607389450073242
            ],
            "type" : "VEC3"
        },
        {
            "bufferView" : 1,
            "componentType" : 5126,
            "count" : 637,
            "type" : "VEC3"
        },
        {
            "bufferView" : 2,
            "componentType" : 5126,
            "count" : 637,
            "type" : "VEC2"
        },
        {
            "bufferView" : 3,
            "componentType" : 5123,
            "count" : 711,
            "type" : "SCALAR"
        },
        {
            "bufferView" : 4,
            "componentType" : 5126,
            "count" : 629,
            "max" : [
                2.964935302734375,
                -70.75537109375,
                29.223020553588867
            ],
            "min" : [
                -2.79827880859375,
                -80.30517578125,
                21.347532272338867
            ],
            "type" : "VEC3"
        },
        {
            "bufferView" : 5,
            "componentType" : 5126,
            "count" : 629,
            "type" : "VEC3"
        },
        {
            "bufferView" : 6,
            "componentType" : 5126,
            "count" : 629,
            "type" : "VEC2"
        },
        {
            "bufferView" : 7,
            "componentType" : 5123,
            "count" : 960,
            "type" : "SCALAR"
        },
        {
            "bufferView" : 8,
            "componentType" : 5126,
            "count" : 204,
            "max" : [
                1.6685028076171875,
                -19.564695358276367,
                -22.2777099609375
            ],
            "min" : [
                -1.9078292846679688,
                -26.6185302734375,
                -25.0682373046875
            ],
            "type" : "VEC3"
        },
        {
            "bufferView" : 9,
            "componentType" : 5126,
            "count" : 204,
            "type" : "VEC3"
        },
        {
            "bufferView" : 10,
            "componentType" : 5126,
            "count" : 204,
            "type" : "VEC2"
        },
        {
            "bufferView" : 11,
            "componentType" : 5123,
            "count" : 237,
            "type" : "SCALAR"
        },
        {
            "bufferView" : 12,
            "componentType" : 5126,
            "count" : 84,
            "max" : [
                2.76727294921875,
                -23.688472747802734,
                -40.276611328125
            ],
            "min" : [
                -2.9862518310546875,
                -33.951412200927734,
                -51.686767578125
            ],
            "type" : "VEC3"
        },
        {
            "bufferView" : 13,
            "componentType" : 5126,
            "count" : 84,
            "type" : "VEC3"
        },
        {
            "bufferView" : 14,
            "componentType" : 5126,
            "count" : 84,
            "type" : "VEC2"
        },
        {
            "bufferView" : 15,
            "componentType" : 5123,
            "count" : 96,
            "type" : "SCALAR"
        },
        {
            "bufferView" : 17,
            "componentType" : 5126,
            "count" : 370,
            "max" : [
                2.461090087890625,
                -19.068601608276367,
                -23.533447265625
            ],
            "min" : [
                -2.6994476318359375,
                -41.29979705810547,
                -66.8486328125
            ],
            "type" : "VEC3"
        },
        {
            "bufferView" : 18,
            "componentType" : 5126,
            "count" : 370,
            "type" : "VEC3"
        },
        {
            "bufferView" : 19,
            "componentType" : 5126,
            "count" : 370,
            "type" : "VEC2"
        },
        {
            "bufferView" : 20,
            "componentType" : 5123,
            "count" : 558,
            "type" : "SCALAR"
        },
        {
            "bufferView" : 22,
            "componentType" : 5126,
            "count" : 119,
            "max" : [
                0.7925872802734375,
                -88.34310150146484,
                -0.33996471762657166
            ],
            "min" : [
                -0.6254463195800781,
                -92.59090423583984,
                -8.30072021484375
            ],
            "type" : "VEC3"
        },
        {
            "bufferView" : 23,
            "componentType" : 5126,
            "count" : 119,
            "type" : "VEC3"
        },
        {
            "bufferView" : 24,
            "componentType" : 5126,
            "count" : 119,
            "type" : "VEC2"
        },
        {
            "bufferView" : 25,
            "componentType" : 5123,
            "count" : 228,
            "type" : "SCALAR"
        },
        {
            "bufferView" : 26,
            "componentType" : 5126,
            "count" : 12265,
            "max" : [
                5.437652587890625,
                42.71555709838867,
                31.96703338623047
            ],
            "min" : [
                -5.27099609375,
                -40.19411087036133,
                -26.494508743286133
            ],
            "type" : "VEC3"
        },
        {
            "bufferView" : 27,
            "componentType" : 5126,
            "count" : 12265,
            "type" : "VEC3"
        },
        {
            "bufferView" : 28,
            "componentType" : 5126,
            "count" : 12265,
            "type" : "VEC2"
        },
        {
            "bufferView" : 29,
            "componentType" : 5123,
            "count" : 16428,
            "type" : "SCALAR"
        }
    ],
    "bufferViews" : [
        {
            "buffer" : 0,
            "byteLength" : 7644,
            "byteOffset" : 0
        },
        {
            "buffer" : 0,
            "byteLength" : 7644,
            "byteOffset" : 7644
        },
        {
            "buffer" : 0,
            "byteLength" : 5096,
            "byteOffset" : 15288
        },
        {
            "buffer" : 0,
            "byteLength" : 1422,
            "byteOffset" : 20384
        },
        {
            "buffer" : 0,
            "byteLength" : 7548,
            "byteOffset" : 21808
        },
        {
            "buffer" : 0,
            "byteLength" : 7548,
            "byteOffset" : 29356
        },
        {
            "buffer" : 0,
            "byteLength" : 5032,
            "byteOffset" : 36904
        },
        {
            "buffer" : 0,
            "byteLength" : 1920,
            "byteOffset" : 41936
        },
        {
            "buffer" : 0,
            "byteLength" : 2448,
            "byteOffset" : 43856
        },
        {
            "buffer" : 0,
            "byteLength" : 2448,
            "byteOffset" : 46304
        },
        {
            "buffer" : 0,
            "byteLength" : 1632,
            "byteOffset" : 48752
        },
        {
            "buffer" : 0,
            "byteLength" : 474,
            "byteOffset" : 50384
        },
        {
            "buffer" : 0,
            "byteLength" : 1008,
            "byteOffset" : 50860
        },
        {
            "buffer" : 0,
            "byteLength" : 1008,
            "byteOffset" : 51868
        },
        {
            "buffer" : 0,
            "byteLength" : 672,
            "byteOffset" : 52876
        },
        {
            "buffer" : 0,
            "byteLength" : 192,
            "byteOffset" : 53548
        },
        {
            "buffer" : 0,
            "byteLength" : 101404,
            "byteOffset" : 53740
        },
        {
            "buffer" : 0,
            "byteLength" : 4440,
            "byteOffset" : 155144
        },
        {
            "buffer" : 0,
            "byteLength" : 4440,
            "byteOffset" : 159584
        },
        {
            "buffer" : 0,
            "byteLength" : 2960,
            "byteOffset" : 164024
        },
        {
            "buffer" : 0,
            "byteLength" : 1116,
            "byteOffset" : 166984
        },
        {
            "buffer" : 0,
            "byteLength" : 1902779,
            "byteOffset" : 168100
        },
        {
            "buffer" : 0,
            "byteLength" : 1428,
            "byteOffset" : 2070880
        },
        {
            "buffer" : 0,
            "byteLength" : 1428,
            "byteOffset" : 2072308
        },
        {
            "buffer" : 0,
            "byteLength" : 952,
            "byteOffset" : 2073736
        },
        {
            "buffer" : 0,
            "byteLength" : 456,
            "byteOffset" : 2074688
        },
        {
            "buffer" : 0,
            "byteLength" : 147180,
            "byteOffset" : 2075144
        },
        {
            "buffer" : 0,
            "byteLength" : 147180,
            "byteOffset" : 2222324
        },
        {
            "buffer" : 0,
            "byteLength" : 98120,
            "byteOffset" : 2369504
        },
        {
            "buffer" : 0,
            "byteLength" : 32856,
            "byteOffset" : 2467624
        }
    ],
    "samplers" : [
        {
            "magFilter" : 9729,
            "minFilter" : 9987
        }
    ],
    "buffers" : [
        {
            "byteLength" : 2500480,
            "uri" : "data:application/octet-stream;base64,"
        }
    ]
}
