{
    "asset" : {
        "generator" : "Khronos glTF Blender I/O v1.6.16",
        "version" : "2.0"
    },
    "scene" : 0,
    "scenes" : [
        {
            "name" : "Scene",
            "nodes" : [
                0,
                1,
                2,
                3,
                4,
                5,
                6
            ]
        }
    ],
    "nodes" : [
        {
            "name" : "Camera",
            "rotation" : [
                0.483536034822464,
                0.33687159419059753,
                -0.20870360732078552,
                0.7804827094078064
            ],
            "translation" : [
                7.358891487121582,
                4.958309173583984,
                6.925790786743164
            ]
        },
        {
            "mesh" : 0,
            "name" : "Cylinder",
            "scale" : [
                3.183544635772705,
                0.6704294085502625,
                3.183544635772705
            ],
            "translation" : [
                0,
                1.9384435415267944,
                0
            ]
        },
        {
            "name" : "Camera.001",
            "rotation" : [
                0.483536034822464,
                0.33687159419059753,
                -0.20870360732078552,
                0.7804827094078064
            ],
            "translation" : [
                18.421188354492188,
                4.958309173583984,
                6.925790786743164
            ]
        },
        {
            "mesh" : 1,
            "name" : "Cylinder.001",
            "scale" : [
                3.183544635772705,
                0.6704294085502625,
                3.183544635772705
            ],
            "translation" : [
                11.062297821044922,
                1.637317419052124,
                0
            ]
        },
        {
            "name" : "Point",
            "translation" : [
                0,
                22.978303909301758,
                21.420866012573242
            ]
        },
        {
            "name" : "Point.001",
            "translation" : [
                0,
                23.449817657470703,
                -31.69757080078125
            ]
        },
        {
            "mesh" : 2,
            "name" : "Plane",
            "scale" : [
                51.453582763671875,
                51.453582763671875,
                51.453582763671875
            ]
        }
    ],
    "materials" : [
        {
            "doubleSided" : true,
            "name" : "white pawn",
            "pbrMetallicRoughness" : {
                "baseColorFactor" : [
                    0.7783359885215759,
                    0.8000000715255737,
                    0.10328324139118195,
                    1
                ],
                "metallicFactor" : 0,
                "roughnessFactor" : 0.5
            }
        },
        {
            "doubleSided" : true,
            "name" : "black pawn",
            "pbrMetallicRoughness" : {
                "baseColorFactor" : [
                    0,
                    0,
                    0,
                    1
                ],
                "metallicFactor" : 0,
                "roughnessFactor" : 0.5
            }
        },
        {
            "doubleSided" : true,
            "name" : "Material.001",
            "pbrMetallicRoughness" : {
                "baseColorFactor" : [
                    0.8000000715255737,
                    0.024301638826727867,
                    0.024301638826727867,
                    1
                ],
                "metallicFactor" : 0,
                "roughnessFactor" : 0.5
            }
        }
    ],
    "meshes" : [
        {
            "name" : "Cylinder.004",
            "primitives" : [
                {
                    "attributes" : {
                        "POSITION" : 0,
                        "NORMAL" : 1,
                        "TEXCOORD_0" : 2
                    },
                    "indices" : 3,
                    "material" : 0
                }
            ]
        },
        {
            "name" : "Cylinder.005",
            "primitives" : [
                {
                    "attributes" : {
                        "POSITION" : 4,
                        "NORMAL" : 5,
                        "TEXCOORD_0" : 6
                    },
                    "indices" : 3,
                    "material" : 1
                }
            ]
        },
        {
            "name" : "Plane",
            "primitives" : [
                {
                    "attributes" : {
                        "POSITION" : 7,
                        "NORMAL" : 8,
                        "TEXCOORD_0" : 9
                    },
                    "indices" : 10,
                    "material" : 2
                }
            ]
        }
    ],
    "accessors" : [
        {
            "bufferView" : 0,
            "componentType" : 5126,
            "count" : 1416,
            "max" : [
                1.1249483823776245,
                18.3308162689209,
                1.1249483823776245
            ],
            "min" : [
                -1.1249483823776245,
                -1.7829179763793945,
                -1.1249483823776245
            ],
            "type" : "VEC3"
        },
        {
            "bufferView" : 1,
            "componentType" : 5126,
            "count" : 1416,
            "type" : "VEC3"
        },
        {
            "bufferView" : 2,
            "componentType" : 5126,
            "count" : 1416,
            "type" : "VEC2"
        },
        {
            "bufferView" : 3,
            "componentType" : 5123,
            "count" : 7668,
            "type" : "SCALAR"
        },
        {
            "bufferView" : 4,
            "componentType" : 5126,
            "count" : 1416,
            "max" : [
                1.1249483823776245,
                18.3308162689209,
                1.1249483823776245
            ],
            "min" : [
                -1.1249483823776245,
                -1.7829179763793945,
                -1.1249483823776245
            ],
            "type" : "VEC3"
        },
        {
            "bufferView" : 5,
            "componentType" : 5126,
            "count" : 1416,
            "type" : "VEC3"
        },
        {
            "bufferView" : 6,
            "componentType" : 5126,
            "count" : 1416,
            "type" : "VEC2"
        },
        {
            "bufferView" : 7,
            "componentType" : 5126,
            "count" : 4,
            "max" : [
                1,
                0,
                1
            ],
            "min" : [
                -1,
                0,
                -1
            ],
            "type" : "VEC3"
        },
        {
            "bufferView" : 8,
            "componentType" : 5126,
            "count" : 4,
            "type" : "VEC3"
        },
        {
            "bufferView" : 9,
            "componentType" : 5126,
            "count" : 4,
            "type" : "VEC2"
        },
        {
            "bufferView" : 10,
            "componentType" : 5123,
            "count" : 6,
            "type" : "SCALAR"
        }
    ],
    "bufferViews" : [
        {
            "buffer" : 0,
            "byteLength" : 16992,
            "byteOffset" : 0
        },
        {
            "buffer" : 0,
            "byteLength" : 16992,
            "byteOffset" : 16992
        },
        {
            "buffer" : 0,
            "byteLength" : 11328,
            "byteOffset" : 33984
        },
        {
            "buffer" : 0,
            "byteLength" : 15336,
            "byteOffset" : 45312
        },
        {
            "buffer" : 0,
            "byteLength" : 16992,
            "byteOffset" : 60648
        },
        {
            "buffer" : 0,
            "byteLength" : 16992,
            "byteOffset" : 77640
        },
        {
            "buffer" : 0,
            "byteLength" : 11328,
            "byteOffset" : 94632
        },
        {
            "buffer" : 0,
            "byteLength" : 48,
            "byteOffset" : 105960
        },
        {
            "buffer" : 0,
            "byteLength" : 48,
            "byteOffset" : 106008
        },
        {
            "buffer" : 0,
            "byteLength" : 32,
            "byteOffset" : 106056
        },
        {
            "buffer" : 0,
            "byteLength" : 12,
            "byteOffset" : 106088
        }
    ],
    "buffers" : [
        {
            "byteLength" : 106100,
            "uri" : "data:application/octet-stream;base64,"
        }
    ]
}
